<svg width="283" height="291" viewBox="0 0 283 291" fill="none" xmlns="http://www.w3.org/2000/svg">
<path d="M166.17 49.9619L45.9619 170.17C40.1041 176.028 40.1041 185.525 45.9619 191.383L60.1041 205.525C65.9619 211.383 75.4594 211.383 81.3173 205.525L201.525 85.3173C207.383 79.4594 216.881 79.4594 222.739 85.3173L236.527 99.1059C242.385 104.964 242.385 114.461 236.527 120.319L116.319 240.527C110.461 246.385 110.461 255.883 116.319 261.74L130.815 276.236C136.673 282.094 146.17 282.094 152.028 276.236L165.813 262.451C171.671 256.593 171.671 247.096 165.813 241.238L45.6048 121.03C39.747 115.172 39.7469 105.674 45.6048 99.8165L59.3898 86.0315C65.2477 80.1737 74.7452 80.1737 80.603 86.0315L200.811 206.24C206.669 212.098 216.167 212.098 222.024 206.24L237.238 191.026C243.096 185.168 243.096 175.671 237.238 169.813L117.03 49.6048C111.172 43.7469 111.172 34.2495 117.03 28.3916L130.815 14.6066C136.673 8.74874 146.17 8.74874 152.028 14.6066L166.17 28.7487C172.028 34.6066 172.028 44.1041 166.17 49.9619Z" stroke="#333D79" stroke-width="20"/>
<path d="M182 175L236.741 120.259C242.658 114.342 242.589 104.728 236.588 98.8956L222.604 85.3057C216.723 79.5904 207.343 79.6574 201.544 85.4562L81.257 205.743C75.3407 211.659 65.7279 211.592 59.8955 205.593L45.8099 191.105C40.0926 185.224 40.1586 175.841 45.9583 170.042L98.5 117.5M80 85.5L201 206.5" stroke="#E8343E" stroke-width="20"/>
</svg>
