<svg width="276" height="276" viewBox="0 0 276 276" fill="none" xmlns="http://www.w3.org/2000/svg">
<path d="M181.019 43.1335L140.714 2.82843C139.152 1.26633 136.619 1.26633 135.057 2.82843L94.7522 43.1335C93.1901 44.6956 93.1901 47.2283 94.7522 48.7904L152.735 106.773L168.291 91.2168L125.158 48.0833C123.596 46.5212 123.596 43.9885 125.158 42.4264L135.057 32.5269C136.619 30.9648 139.152 30.9648 140.714 32.5269L150.614 42.4264C152.176 43.9885 152.176 46.5212 150.614 48.0833L138.593 60.1041L154.149 75.6604L181.019 48.7904C182.581 47.2283 182.581 44.6956 181.019 43.1335Z" fill="#333D79"/>
<path d="M79.1956 64.3465L106.066 91.2166L91.2164 106.066L79.1956 94.045C77.6335 92.4829 75.1009 92.4829 73.5388 94.045L63.6393 103.944C62.0772 105.507 62.0772 108.039 63.6393 109.601L75.6601 121.622L60.1037 137.178L33.2337 110.308C31.6716 108.746 31.6716 106.214 33.2337 104.652L73.5388 64.3465C75.1009 62.7844 77.6335 62.7844 79.1956 64.3465Z" fill="#333D79"/>
<path d="M137.178 92.6311L121.622 77.0747L107.48 91.2168L123.036 106.773L137.178 92.6311Z" fill="#333D79"/>
<path d="M168.292 184.555L152.735 168.999L138.593 183.141L154.15 198.697L168.292 184.555Z" fill="#333D79"/>
<path d="M196.575 64.3469L138.593 122.33L153.442 137.179L196.575 94.0454C198.137 92.4833 200.67 92.4833 202.232 94.0454L212.132 103.945C213.694 105.507 213.694 108.04 212.132 109.602L168.291 153.442L106.773 91.9241L33.2336 165.463C31.6715 167.025 31.6715 169.558 33.2336 171.12L73.5387 211.425C75.1008 212.987 77.6335 212.987 79.1956 211.425L137.178 153.442L122.329 138.593L79.1956 181.727C77.6335 183.289 75.1008 183.289 73.5387 181.727L63.6392 171.827C62.0771 170.265 62.0771 167.732 63.6392 166.17L107.48 122.33L168.998 183.848L242.537 110.309C244.099 108.747 244.099 106.214 242.537 104.652L202.232 64.3469C200.67 62.7848 198.137 62.7848 196.575 64.3469Z" fill="#E8343F"/>
<path d="M181.019 226.981L123.036 168.999L107.48 184.555L150.613 227.688C152.175 229.25 152.175 231.783 150.613 233.345L140.714 243.245C139.152 244.807 136.619 244.807 135.057 243.245L125.157 233.345C123.595 231.783 123.595 229.25 125.157 227.688L137.178 215.668L121.622 200.111L94.7519 226.981C93.1898 228.543 93.1898 231.076 94.7519 232.638L135.057 272.943C136.619 274.505 139.152 274.505 140.714 272.943L181.019 232.638C182.581 231.076 182.581 228.543 181.019 226.981Z" fill="#333D79"/>
<path d="M198.697 121.623L184.555 107.48L168.998 123.037L183.14 137.179L198.697 121.623Z" fill="#333D79"/>
<path d="M106.773 152.735L92.6309 138.593L77.0745 154.149L91.2166 168.291L106.773 152.735Z" fill="#333D79"/>
<path d="M196.576 211.425L169.706 184.555L184.555 169.705L196.576 181.726C198.138 183.288 200.671 183.288 202.233 181.726L212.132 171.827C213.695 170.265 213.695 167.732 212.132 166.17L200.112 154.149L215.668 138.593L242.538 165.463C244.1 167.025 244.1 169.558 242.538 171.12L202.233 211.425C200.671 212.987 198.138 212.987 196.576 211.425Z" fill="#333D79"/>
</svg>
